<svg width="32" height="28" viewBox="0 0 32 28" fill="none" xmlns="http://www.w3.org/2000/svg">
<path d="M24.4375 10.25C24.4375 10.4986 24.3387 10.7371 24.1629 10.9129C23.9871 11.0887 23.7486 11.1875 23.5 11.1875H8.5C8.25136 11.1875 8.0129 11.0887 7.83709 10.9129C7.66127 10.7371 7.5625 10.4986 7.5625 10.25C7.5625 10.0014 7.66127 9.7629 7.83709 9.58709C8.0129 9.41127 8.25136 9.3125 8.5 9.3125H23.5C23.7486 9.3125 23.9871 9.41127 24.1629 9.58709C24.3387 9.7629 24.4375 10.0014 24.4375 10.25ZM23.5 14.3125H8.5C8.25136 14.3125 8.0129 14.4113 7.83709 14.5871C7.66127 14.7629 7.5625 15.0014 7.5625 15.25C7.5625 15.4986 7.66127 15.7371 7.83709 15.9129C8.0129 16.0887 8.25136 16.1875 8.5 16.1875H23.5C23.7486 16.1875 23.9871 16.0887 24.1629 15.9129C24.3387 15.7371 24.4375 15.4986 24.4375 15.25C24.4375 15.0014 24.3387 14.7629 24.1629 14.5871C23.9871 14.4113 23.7486 14.3125 23.5 14.3125ZM31.9375 2.75V26.5C31.9373 26.6598 31.8963 26.8168 31.8184 26.9563C31.7404 27.0958 31.6282 27.213 31.4922 27.2969C31.3446 27.389 31.174 27.4378 31 27.4375C30.8547 27.4376 30.7113 27.4039 30.5813 27.3391L26 25.0484L21.4187 27.3391C21.2887 27.404 21.1453 27.4378 21 27.4378C20.8547 27.4378 20.7113 27.404 20.5813 27.3391L16 25.0484L11.4187 27.3391C11.2887 27.404 11.1453 27.4378 11 27.4378C10.8547 27.4378 10.7113 27.404 10.5813 27.3391L6 25.0484L1.41875 27.3391C1.2758 27.4104 1.11697 27.4441 0.957362 27.4368C0.797749 27.4295 0.642641 27.3816 0.506764 27.2975C0.370887 27.2135 0.258748 27.0961 0.180995 26.9565C0.103241 26.8169 0.0624522 26.6598 0.0625 26.5V2.75C0.0625 2.16984 0.292968 1.61344 0.703204 1.2032C1.11344 0.792968 1.66984 0.5625 2.25 0.5625H29.75C30.3302 0.5625 30.8866 0.792968 31.2968 1.2032C31.707 1.61344 31.9375 2.16984 31.9375 2.75ZM30.0625 2.75C30.0625 2.66712 30.0296 2.58763 29.971 2.52903C29.9124 2.47042 29.8329 2.4375 29.75 2.4375H2.25C2.16712 2.4375 2.08763 2.47042 2.02903 2.52903C1.97042 2.58763 1.9375 2.66712 1.9375 2.75V24.9828L5.58125 23.1609C5.71129 23.096 5.85465 23.0622 6 23.0622C6.14535 23.0622 6.28871 23.096 6.41875 23.1609L11 25.4516L15.5813 23.1609C15.7113 23.096 15.8547 23.0622 16 23.0622C16.1453 23.0622 16.2887 23.096 16.4187 23.1609L21 25.4516L25.5813 23.1609C25.7113 23.096 25.8547 23.0622 26 23.0622C26.1453 23.0622 26.2887 23.096 26.4187 23.1609L30.0625 24.9828V2.75Z" fill="white"/>
</svg>
